<svg width="28" height="28" viewBox="0 0 28 28" fill="none" xmlns="http://www.w3.org/2000/svg">
<rect width="28" height="28" rx="14" fill="#5438A8"/>
<g clip-path="url(#clip0_3_668)">
<path d="M12.6667 13.3333V11.3333L16 14L12.6667 16.6666V14.6666H6.66667V13.3333H12.6667ZM7.63867 16H9.05467C9.52003 17.146 10.3691 18.0948 11.4567 18.6839C12.5443 19.2731 13.8029 19.4661 15.017 19.2298C16.2312 18.9936 17.3255 18.3428 18.1129 17.3888C18.9002 16.4348 19.3316 15.2369 19.3333 14C19.334 12.7618 18.9039 11.5619 18.1166 10.6061C17.3293 9.65039 16.2341 8.99835 15.0186 8.76185C13.8032 8.52536 12.5434 8.71914 11.4552 9.30996C10.367 9.90079 9.51831 10.8518 9.05467 12H7.63867C8.488 9.29531 11.0147 7.33331 14 7.33331C17.682 7.33331 20.6667 10.318 20.6667 14C20.6667 17.682 17.682 20.6666 14 20.6666C11.0147 20.6666 8.488 18.7046 7.63867 16Z" fill="white"/>
</g>
<defs>
<clipPath id="clip0_3_668">
<rect width="16" height="16" fill="white" transform="translate(6 6)"/>
</clipPath>
</defs>
</svg>
