<svg width="24" height="24" viewBox="0 0 24 24" fill="none" xmlns="http://www.w3.org/2000/svg">
<rect width="24" height="24" rx="12" fill="#5438A8"/>
<g clip-path="url(#clip0_3_2930)">
<path d="M10.6667 11.3333V9.33333L14 12L10.6667 14.6667V12.6667H4.66667V11.3333H10.6667ZM5.63867 14H7.05467C7.52004 15.146 8.36914 16.0948 9.45675 16.684C10.5444 17.2731 11.8029 17.4661 13.017 17.2298C14.2312 16.9936 15.3255 16.3428 16.1129 15.3888C16.9002 14.4348 17.3316 13.2369 17.3333 12C17.334 10.7618 16.9039 9.56188 16.1166 8.60614C15.3294 7.6504 14.2341 6.99837 13.0187 6.76187C11.8032 6.52537 10.5434 6.71916 9.45519 7.30998C8.36701 7.9008 7.51832 8.85185 7.05467 10H5.63867C6.48801 7.29533 9.01467 5.33333 12 5.33333C15.682 5.33333 18.6667 8.318 18.6667 12C18.6667 15.682 15.682 18.6667 12 18.6667C9.01467 18.6667 6.48801 16.7047 5.63867 14Z" fill="white"/>
</g>
<defs>
<clipPath id="clip0_3_2930">
<rect width="16" height="16" fill="white" transform="translate(4 4)"/>
</clipPath>
</defs>
</svg>
