<svg width="60" height="60" viewBox="0 0 60 60" fill="none" xmlns="http://www.w3.org/2000/svg">
<path d="M60 30C60 46.5685 46.5685 60 30 60C13.4315 60 0 46.5685 0 30C0 13.4315 13.4315 0 30 0C46.5685 0 60 13.4315 60 30ZM8.4 30C8.4 41.9294 18.0707 51.6 30 51.6C41.9294 51.6 51.6 41.9294 51.6 30C51.6 18.0707 41.9294 8.4 30 8.4C18.0707 8.4 8.4 18.0707 8.4 30Z" fill="#D5CFE9"/>
<circle cx="30" cy="30" r="19.5" fill="#7F6DBC" stroke="#5438A8"/>
<path d="M31.5994 32.7514C32.9771 32.3362 34.1599 31.4399 34.9323 30.2258C35.7046 29.0118 36.0153 27.5607 35.8075 26.1368C35.5998 24.7129 34.8876 23.411 33.8006 22.4682C32.7136 21.5254 31.3241 21.0044 29.8851 21C28.498 20.9999 27.1537 21.4803 26.0808 22.3594C25.0079 23.2386 24.2726 24.4622 24 25.8223L27.3634 26.496C27.4589 26.0185 27.688 25.5778 28.0241 25.2254C28.3601 24.873 28.7894 24.6232 29.2619 24.5052C29.7343 24.3872 30.2306 24.4058 30.6929 24.5588C31.1553 24.7118 31.5646 24.993 31.8734 25.3696C32.1822 25.7461 32.3777 26.2027 32.4372 26.686C32.4966 27.1694 32.4176 27.6597 32.2093 28.0999C32.001 28.5401 31.672 28.912 31.2606 29.1726C30.8491 29.4331 30.3721 29.5714 29.8851 29.5714C29.4305 29.5714 28.9945 29.752 28.673 30.0735C28.3515 30.395 28.1709 30.8311 28.1709 31.2857V33.8571H31.5994V32.7514Z" fill="white"/>
<path d="M28.1709 35.5714V39H31.5994V35.5714H28.1709Z" fill="white"/>
</svg>
