<svg width="48" height="48" viewBox="0 0 48 48" fill="none" xmlns="http://www.w3.org/2000/svg">
<path d="M48 24C48 37.2548 37.2548 48 24 48C10.7452 48 0 37.2548 0 24C0 10.7452 10.7452 0 24 0C37.2548 0 48 10.7452 48 24ZM6.72 24C6.72 33.5435 14.4565 41.28 24 41.28C33.5435 41.28 41.28 33.5435 41.28 24C41.28 14.4565 33.5435 6.72 24 6.72C14.4565 6.72 6.72 14.4565 6.72 24Z" fill="#D5CFE9"/>
<circle cx="24" cy="24" r="15.5" fill="#7F6DBC" stroke="#5438A8"/>
<path d="M25.0663 25.8343C25.9848 25.5575 26.7733 24.9599 27.2882 24.1506C27.8031 23.3412 28.0102 22.3738 27.8717 21.4245C27.7332 20.4753 27.2584 19.6074 26.5337 18.9788C25.809 18.3503 24.8827 18.0029 23.9234 18C22.9987 17.9999 22.1025 18.3202 21.3872 18.9063C20.6719 19.4924 20.1817 20.3081 20 21.2149L22.2423 21.664C22.3059 21.3456 22.4586 21.0519 22.6827 20.8169C22.9068 20.582 23.1929 20.4155 23.5079 20.3368C23.8229 20.2581 24.1537 20.2705 24.462 20.3725C24.7702 20.4745 25.0431 20.662 25.249 20.913C25.4548 21.1641 25.5851 21.4684 25.6248 21.7907C25.6644 22.1129 25.6117 22.4398 25.4729 22.7332C25.334 23.0267 25.1147 23.2747 24.8404 23.4484C24.5661 23.6221 24.2481 23.7143 23.9234 23.7143C23.6203 23.7143 23.3296 23.8347 23.1153 24.049C22.901 24.2633 22.7806 24.554 22.7806 24.8571V26.5714H25.0663V25.8343Z" fill="white"/>
<path d="M22.7806 27.7143V30H25.0663V27.7143H22.7806Z" fill="white"/>
</svg>
