<svg width="12" height="18" viewBox="0 0 12 18" fill="none" xmlns="http://www.w3.org/2000/svg">
<path d="M7.59943 11.7514C8.97715 11.3362 10.1599 10.4399 10.9323 9.22584C11.7046 8.01177 12.0153 6.56066 11.8075 5.1368C11.5998 3.71294 10.8876 2.41104 9.80059 1.46821C8.71357 0.525384 7.32407 0.00435041 5.88514 0C4.49803 -0.00010584 3.15371 0.480264 2.08078 1.35942C1.00786 2.23857 0.272588 3.46222 0 4.82229L3.36343 5.496C3.45888 5.01846 3.68797 4.57783 4.02406 4.2254C4.36014 3.87297 4.78939 3.62322 5.26187 3.50521C5.73435 3.3872 6.23062 3.40579 6.69295 3.55881C7.15527 3.71182 7.56465 3.99298 7.87343 4.36956C8.18221 4.74614 8.3777 5.20267 8.43717 5.68602C8.49663 6.16936 8.41762 6.65966 8.20932 7.09986C8.00102 7.54005 7.67201 7.91205 7.26056 8.17256C6.8491 8.43308 6.37213 8.5714 5.88514 8.57143C5.43048 8.57143 4.99445 8.75204 4.67296 9.07353C4.35147 9.39502 4.17085 9.83106 4.17085 10.2857V12.8571H7.59943V11.7514Z" fill="#5438A8"/>
<path d="M4.17085 14.5714V18H7.59943V14.5714H4.17085Z" fill="#5438A8"/>
</svg>
