<svg width="60" height="60" fill="none" xmlns="http://www.w3.org/2000/svg"><path d="M60 30c0 16.569-13.431 30-30 30C13.431 60 0 46.569 0 30 0 13.431 13.431 0 30 0c16.569 0 30 13.431 30 30zM8.4 30c0 11.93 9.67 21.6 21.6 21.6 11.93 0 21.6-9.67 21.6-21.6 0-11.93-9.67-21.6-21.6-21.6C18.07 8.4 8.4 18.07 8.4 30z" fill="#D5CFE9"/><circle cx="30" cy="30" r="19.5" fill="#7F6DBC" stroke="#5438A8"/><path d="M31.6 32.751A6.003 6.003 0 0029.884 21 6.002 6.002 0 0024 25.822l3.363.674a2.572 2.572 0 112.522 3.075 1.714 1.714 0 00-1.714 1.715v2.571h3.428v-1.106zm-3.43 2.82V39h3.43v-3.429h-3.43z" fill="#fff"/></svg>