<svg width="48" height="48" fill="none" xmlns="http://www.w3.org/2000/svg"><path d="M48 24c0 13.255-10.745 24-24 24S0 37.255 0 24 10.745 0 24 0s24 10.745 24 24zM6.72 24c0 9.544 7.737 17.28 17.28 17.28 9.544 0 17.28-7.736 17.28-17.28 0-9.543-7.736-17.28-17.28-17.28-9.543 0-17.28 7.737-17.28 17.28z" fill="#D5CFE9"/><circle cx="24" cy="24" r="15.5" fill="#7F6DBC" stroke="#5438A8"/><path d="M25.066 25.834A4.002 4.002 0 0023.923 18 4.001 4.001 0 0020 21.215l2.242.449a1.714 1.714 0 111.681 2.05 1.143 1.143 0 00-1.142 1.143v1.714h2.285v-.737zm-2.286 1.88V30h2.286v-2.286h-2.285z" fill="#fff"/></svg>